<mxfile host="app.diagrams.net" agent="Mozilla/5.0 (X11; Linux x86_64; rv:136.0) Gecko/20100101 Firefox/136.0" version="26.2.14">
  <diagram name="PÃ¡gina-1" id="frh3I2VvlgBK3dXxL9PQ">
    <mxGraphModel dx="1426" dy="794" grid="1" gridSize="10" guides="1" tooltips="1" connect="1" arrows="1" fold="1" page="1" pageScale="1" pageWidth="850" pageHeight="1100" math="0" shadow="0">
      <root>
        <mxCell id="0" />
        <mxCell id="1" parent="0" />
        <mxCell id="SCcKGLB4KRr6n6MDa7tv-2" value="" style="endArrow=classic;html=1;rounded=0;" edge="1" parent="1">
          <mxGeometry width="50" height="50" relative="1" as="geometry">
            <mxPoint x="30" y="160" as="sourcePoint" />
            <mxPoint x="90" y="160" as="targetPoint" />
          </mxGeometry>
        </mxCell>
        <mxCell id="SCcKGLB4KRr6n6MDa7tv-12" style="edgeStyle=orthogonalEdgeStyle;rounded=0;orthogonalLoop=1;jettySize=auto;html=1;exitX=1;exitY=0.5;exitDx=0;exitDy=0;entryX=0;entryY=0;entryDx=0;entryDy=0;" edge="1" parent="1" source="SCcKGLB4KRr6n6MDa7tv-4" target="SCcKGLB4KRr6n6MDa7tv-11">
          <mxGeometry relative="1" as="geometry">
            <Array as="points">
              <mxPoint x="180" y="130" />
              <mxPoint x="542" y="130" />
            </Array>
          </mxGeometry>
        </mxCell>
        <mxCell id="SCcKGLB4KRr6n6MDa7tv-4" value="&lt;font style=&quot;font-size: 20px;&quot;&gt;0&lt;/font&gt;" style="ellipse;whiteSpace=wrap;html=1;aspect=fixed;" vertex="1" parent="1">
          <mxGeometry x="100" y="120" width="80" height="80" as="geometry" />
        </mxCell>
        <mxCell id="SCcKGLB4KRr6n6MDa7tv-23" style="edgeStyle=orthogonalEdgeStyle;rounded=0;orthogonalLoop=1;jettySize=auto;html=1;entryX=0.5;entryY=1;entryDx=0;entryDy=0;exitX=0.5;exitY=1;exitDx=0;exitDy=0;" edge="1" parent="1" source="SCcKGLB4KRr6n6MDa7tv-7" target="SCcKGLB4KRr6n6MDa7tv-10">
          <mxGeometry relative="1" as="geometry">
            <mxPoint x="570" y="770" as="targetPoint" />
          </mxGeometry>
        </mxCell>
        <mxCell id="SCcKGLB4KRr6n6MDa7tv-24" style="edgeStyle=orthogonalEdgeStyle;rounded=0;orthogonalLoop=1;jettySize=auto;html=1;exitX=0;exitY=1;exitDx=0;exitDy=0;entryX=0.5;entryY=1;entryDx=0;entryDy=0;" edge="1" parent="1" source="SCcKGLB4KRr6n6MDa7tv-7" target="SCcKGLB4KRr6n6MDa7tv-9">
          <mxGeometry relative="1" as="geometry">
            <Array as="points">
              <mxPoint x="210" y="648" />
              <mxPoint x="210" y="580" />
              <mxPoint x="140" y="580" />
            </Array>
          </mxGeometry>
        </mxCell>
        <mxCell id="SCcKGLB4KRr6n6MDa7tv-25" style="edgeStyle=orthogonalEdgeStyle;rounded=0;orthogonalLoop=1;jettySize=auto;html=1;entryX=1;entryY=1;entryDx=0;entryDy=0;" edge="1" parent="1" source="SCcKGLB4KRr6n6MDa7tv-7" target="SCcKGLB4KRr6n6MDa7tv-8">
          <mxGeometry relative="1" as="geometry">
            <mxPoint x="330" y="340" as="targetPoint" />
            <Array as="points">
              <mxPoint x="260" y="620" />
              <mxPoint x="260" y="348" />
            </Array>
          </mxGeometry>
        </mxCell>
        <mxCell id="SCcKGLB4KRr6n6MDa7tv-27" style="edgeStyle=orthogonalEdgeStyle;rounded=0;orthogonalLoop=1;jettySize=auto;html=1;exitX=0;exitY=0;exitDx=0;exitDy=0;entryX=0.5;entryY=1;entryDx=0;entryDy=0;" edge="1" parent="1" source="SCcKGLB4KRr6n6MDa7tv-7" target="SCcKGLB4KRr6n6MDa7tv-4">
          <mxGeometry relative="1" as="geometry">
            <mxPoint x="310" y="590" as="targetPoint" />
            <Array as="points">
              <mxPoint x="290" y="592" />
              <mxPoint x="290" y="220" />
              <mxPoint x="140" y="220" />
            </Array>
          </mxGeometry>
        </mxCell>
        <mxCell id="SCcKGLB4KRr6n6MDa7tv-7" value="Fp" style="ellipse;whiteSpace=wrap;html=1;aspect=fixed;" vertex="1" parent="1">
          <mxGeometry x="530" y="580" width="80" height="80" as="geometry" />
        </mxCell>
        <mxCell id="SCcKGLB4KRr6n6MDa7tv-13" style="edgeStyle=orthogonalEdgeStyle;rounded=0;orthogonalLoop=1;jettySize=auto;html=1;exitX=1;exitY=0;exitDx=0;exitDy=0;entryX=0;entryY=0.5;entryDx=0;entryDy=0;" edge="1" parent="1" source="SCcKGLB4KRr6n6MDa7tv-8" target="SCcKGLB4KRr6n6MDa7tv-11">
          <mxGeometry relative="1" as="geometry" />
        </mxCell>
        <mxCell id="SCcKGLB4KRr6n6MDa7tv-8" value="1" style="ellipse;whiteSpace=wrap;html=1;aspect=fixed;" vertex="1" parent="1">
          <mxGeometry x="100" y="280" width="80" height="80" as="geometry" />
        </mxCell>
        <mxCell id="SCcKGLB4KRr6n6MDa7tv-14" style="edgeStyle=orthogonalEdgeStyle;rounded=0;orthogonalLoop=1;jettySize=auto;html=1;exitX=1;exitY=0;exitDx=0;exitDy=0;entryX=0;entryY=1;entryDx=0;entryDy=0;" edge="1" parent="1" source="SCcKGLB4KRr6n6MDa7tv-9" target="SCcKGLB4KRr6n6MDa7tv-11">
          <mxGeometry relative="1" as="geometry">
            <Array as="points">
              <mxPoint x="400" y="452" />
              <mxPoint x="400" y="188" />
            </Array>
          </mxGeometry>
        </mxCell>
        <mxCell id="SCcKGLB4KRr6n6MDa7tv-9" value="2" style="ellipse;whiteSpace=wrap;html=1;aspect=fixed;" vertex="1" parent="1">
          <mxGeometry x="100" y="440" width="80" height="80" as="geometry" />
        </mxCell>
        <mxCell id="SCcKGLB4KRr6n6MDa7tv-10" value="3" style="ellipse;whiteSpace=wrap;html=1;aspect=fixed;" vertex="1" parent="1">
          <mxGeometry x="100" y="600" width="80" height="80" as="geometry" />
        </mxCell>
        <mxCell id="SCcKGLB4KRr6n6MDa7tv-20" style="edgeStyle=orthogonalEdgeStyle;rounded=0;orthogonalLoop=1;jettySize=auto;html=1;entryX=1;entryY=0.5;entryDx=0;entryDy=0;" edge="1" parent="1" source="SCcKGLB4KRr6n6MDa7tv-11" target="SCcKGLB4KRr6n6MDa7tv-7">
          <mxGeometry relative="1" as="geometry">
            <Array as="points">
              <mxPoint x="690" y="160" />
              <mxPoint x="690" y="620" />
            </Array>
          </mxGeometry>
        </mxCell>
        <mxCell id="SCcKGLB4KRr6n6MDa7tv-11" value="Ap" style="ellipse;whiteSpace=wrap;html=1;aspect=fixed;" vertex="1" parent="1">
          <mxGeometry x="530" y="120" width="80" height="80" as="geometry" />
        </mxCell>
        <mxCell id="SCcKGLB4KRr6n6MDa7tv-15" style="edgeStyle=orthogonalEdgeStyle;rounded=0;orthogonalLoop=1;jettySize=auto;html=1;exitX=1;exitY=0;exitDx=0;exitDy=0;entryX=0.588;entryY=0.988;entryDx=0;entryDy=0;entryPerimeter=0;" edge="1" parent="1" source="SCcKGLB4KRr6n6MDa7tv-10" target="SCcKGLB4KRr6n6MDa7tv-11">
          <mxGeometry relative="1" as="geometry">
            <Array as="points">
              <mxPoint x="168" y="540" />
              <mxPoint x="440" y="540" />
              <mxPoint x="440" y="250" />
              <mxPoint x="577" y="250" />
            </Array>
          </mxGeometry>
        </mxCell>
        <mxCell id="SCcKGLB4KRr6n6MDa7tv-16" value="a,e,0" style="text;html=1;align=center;verticalAlign=middle;resizable=0;points=[];autosize=1;strokeColor=none;fillColor=none;" vertex="1" parent="1">
          <mxGeometry x="230" y="100" width="50" height="30" as="geometry" />
        </mxCell>
        <mxCell id="SCcKGLB4KRr6n6MDa7tv-17" value="a,e,1" style="text;html=1;align=center;verticalAlign=middle;resizable=0;points=[];autosize=1;strokeColor=none;fillColor=none;" vertex="1" parent="1">
          <mxGeometry x="310" y="260" width="50" height="30" as="geometry" />
        </mxCell>
        <mxCell id="SCcKGLB4KRr6n6MDa7tv-18" value="a,e,2" style="text;html=1;align=center;verticalAlign=middle;resizable=0;points=[];autosize=1;strokeColor=none;fillColor=none;" vertex="1" parent="1">
          <mxGeometry x="350" y="420" width="50" height="30" as="geometry" />
        </mxCell>
        <mxCell id="SCcKGLB4KRr6n6MDa7tv-19" value="a,e,3" style="text;html=1;align=center;verticalAlign=middle;resizable=0;points=[];autosize=1;strokeColor=none;fillColor=none;" vertex="1" parent="1">
          <mxGeometry x="390" y="510" width="50" height="30" as="geometry" />
        </mxCell>
        <mxCell id="SCcKGLB4KRr6n6MDa7tv-21" value="&lt;div&gt;0, 0, n&lt;/div&gt;&lt;div&gt;1, 0, 1&lt;/div&gt;&lt;div&gt;2, 0, 2&lt;/div&gt;&lt;div&gt;3, 0, s&lt;/div&gt;&lt;div&gt;0, 1, 0&lt;/div&gt;&lt;div&gt;1, 1, n&lt;/div&gt;&lt;div&gt;2, 1, 2&lt;/div&gt;&lt;div&gt;3, 1, 3&lt;/div&gt;&lt;div&gt;0, 2, 0&lt;/div&gt;&lt;div&gt;1, 1, 1&lt;/div&gt;&lt;div&gt;2, 2, n&lt;/div&gt;&lt;div&gt;3, 2, 3&lt;/div&gt;&lt;div&gt;0, 3, 0&lt;/div&gt;&lt;div&gt;1, 3, 1&lt;/div&gt;&lt;div&gt;2, 3, 2&lt;/div&gt;&lt;div&gt;3, 3, n&lt;/div&gt;&lt;div&gt;&lt;br&gt;&lt;/div&gt;" style="text;html=1;align=center;verticalAlign=middle;resizable=0;points=[];autosize=1;strokeColor=none;fillColor=none;" vertex="1" parent="1">
          <mxGeometry x="700" y="190" width="60" height="260" as="geometry" />
        </mxCell>
      </root>
    </mxGraphModel>
  </diagram>
</mxfile>
